<svg width="693" height="693" viewBox="0 0 693 693" fill="none" xmlns="http://www.w3.org/2000/svg">
<path d="M346.5 422C327.637 422 312.345 388.197 312.345 346.5C312.345 304.803 327.637 271 346.5 271M346.5 422C365.363 422 380.655 388.197 380.655 346.5C380.655 304.803 365.363 271 346.5 271M346.5 422C388.197 422 422 388.197 422 346.5M346.5 422C304.803 422 271 388.197 271 346.5M346.5 271C304.803 271 271 304.803 271 346.5M346.5 271C388.197 271 422 304.803 422 346.5M422 346.5C422 365.363 388.197 380.655 346.5 380.655C304.803 380.655 271 365.363 271 346.5M422 346.5C422 327.637 388.197 312.345 346.5 312.345C304.803 312.345 271 327.637 271 346.5" stroke="white" stroke-opacity="0.55"/>
<circle cx="346.5" cy="346.5" r="218" stroke="white" stroke-opacity="0.6" stroke-dasharray="1 2.5"/>
<circle cx="346.5" cy="346.5" r="346" stroke="white" stroke-opacity="0.55" stroke-dasharray="1 3"/>
</svg>
