<svg width="232" height="232" viewBox="0 0 232 232" fill="none" xmlns="http://www.w3.org/2000/svg">
<circle cx="54.6" cy="65.6" r="11.5" stroke="white" stroke-opacity="0.7"/>
<circle cx="54.6" cy="115.6" r="11.5" stroke="white" stroke-opacity="0.7"/>
<circle cx="176.6" cy="115.6" r="11.5" stroke="white" stroke-opacity="0.7"/>
<circle cx="176.6" cy="165.6" r="11.5" stroke="white" stroke-opacity="0.7"/>
<path d="M66.1 65.5999L108.765 65.2181C112.655 65.1832 115.828 68.3273 115.828 72.2178V81.1" stroke="white" stroke-opacity="0.7"/>
<path d="M165.328 165.6L122.663 165.982C118.772 166.017 115.6 162.873 115.6 158.982V147.6" stroke="white" stroke-opacity="0.7"/>
<path d="M164.6 115.6H156.6" stroke="white" stroke-opacity="0.7"/>
<path d="M77.1 115.6H65.6" stroke="white" stroke-opacity="0.7"/>
<circle cx="115.6" cy="115.6" r="115" stroke="white" stroke-opacity="0.3" stroke-width="1.2"/>
<path d="M129.6 108.814H143.064C145.116 108.814 146.779 110.477 146.779 112.529V127.386H150.029C152.08 127.386 153.743 125.723 153.743 123.671V89.3143C153.743 87.2629 152.08 85.6 150.029 85.6H83.1714C81.1201 85.6 79.4571 87.2629 79.4571 89.3143V123.671C79.4571 125.723 81.1201 127.386 83.1714 127.386H125.886V112.529C125.886 110.477 127.549 108.814 129.6 108.814Z" fill="white" fill-opacity="0.15"/>
<path d="M143.064 108.814H129.6C127.549 108.814 125.886 110.477 125.886 112.529V127.386V129.243V136.671V142.243C125.886 144.294 128.124 145.957 130.312 145.957H143.529C145.717 145.957 146.779 144.294 146.779 142.243V136.671V129.243V127.386V112.529C146.779 110.477 145.116 108.814 143.064 108.814Z" fill="white" fill-opacity="0.15"/>
<path d="M146.779 129.243V136.671M146.779 129.243H152.814C154.353 129.243 155.6 130.49 155.6 132.029V133.886C155.6 135.424 154.353 136.671 152.814 136.671H146.779M146.779 129.243V127.386M125.886 127.386V112.529C125.886 110.477 127.549 108.814 129.6 108.814H143.064C145.116 108.814 146.779 110.477 146.779 112.529V127.386M125.886 127.386H83.1714C81.1201 127.386 79.4571 125.723 79.4571 123.671V89.3143C79.4571 87.2629 81.1201 85.6 83.1714 85.6H150.029C152.08 85.6 153.743 87.2629 153.743 89.3143V123.671C153.743 125.723 152.08 127.386 150.029 127.386H146.779M125.886 127.386V129.243M125.886 129.243H80.3857C78.8472 129.243 77.6 130.49 77.6 132.029V133.886C77.6 135.424 78.8472 136.671 80.3857 136.671H125.886M125.886 129.243V136.671M125.886 136.671V142.243C125.886 144.294 128.124 145.957 130.312 145.957H143.529C145.717 145.957 146.779 144.294 146.779 142.243V136.671" stroke="white" stroke-opacity="0.7" stroke-width="0.928571"/>
</svg>
