<svg width="231" height="231" viewBox="0 0 231 231" fill="none" xmlns="http://www.w3.org/2000/svg">
<circle cx="54.5" cy="65.5" r="11.5" stroke="#212529" stroke-opacity="0.3"/>
<circle cx="54.5" cy="115.5" r="11.5" stroke="#212529" stroke-opacity="0.3"/>
<circle cx="176.5" cy="115.5" r="11.5" stroke="#212529" stroke-opacity="0.3"/>
<circle cx="176.5" cy="165.5" r="11.5" stroke="#212529" stroke-opacity="0.3"/>
<path d="M143.5 100.5C143.5 106.023 130.964 110.5 115.5 110.5C100.036 110.5 87.5 106.023 87.5 100.5V115.5C87.5 121.023 100.036 125.5 115.5 125.5C130.964 125.5 143.5 121.023 143.5 115.5V100.5Z" fill="#212529" fill-opacity="0.05"/>
<path d="M115.5 140.5C130.964 140.5 143.5 136.023 143.5 130.5V115.5C143.5 121.023 130.964 125.5 115.5 125.5C100.036 125.5 87.5 121.023 87.5 115.5V130.5C87.5 136.023 100.036 140.5 115.5 140.5Z" fill="#212529" fill-opacity="0.05"/>
<path d="M115.5 110.5C130.964 110.5 143.5 106.023 143.5 100.5C143.5 94.9772 130.964 90.5 115.5 90.5C100.036 90.5 87.5 94.9772 87.5 100.5C87.5 106.023 100.036 110.5 115.5 110.5Z" fill="#212529" fill-opacity="0.05"/>
<path d="M143.5 100.5C143.5 106.023 130.964 110.5 115.5 110.5C100.036 110.5 87.5 106.023 87.5 100.5M143.5 100.5C143.5 94.9772 130.964 90.5 115.5 90.5C100.036 90.5 87.5 94.9772 87.5 100.5M143.5 100.5V130.5M143.5 100.5V115.5M87.5 100.5V130.5M87.5 100.5V115.5M143.5 130.5C143.5 136.023 130.964 140.5 115.5 140.5C100.036 140.5 87.5 136.023 87.5 130.5M143.5 130.5V115.5M87.5 130.5V115.5M143.5 115.5C143.5 121.023 130.964 125.5 115.5 125.5C100.036 125.5 87.5 121.023 87.5 115.5" stroke="#212529" stroke-opacity="0.3"/>
<path d="M66 65.5L108.665 65.1181C112.555 65.0833 115.728 68.2274 115.728 72.1178L115.728 87.5" stroke="#212529" stroke-opacity="0.3"/>
<path d="M66 65.4999L108.665 65.1181C112.555 65.0833 115.728 68.2273 115.728 72.1178L115.728 87.5" stroke="#212529" stroke-opacity="0.3"/>
<path d="M165.228 165.5L122.563 165.882C118.672 165.917 115.5 162.773 115.5 158.882L115.5 143.5" stroke="#212529" stroke-opacity="0.3"/>
<path d="M164.5 115.5H146.5" stroke="#212529" stroke-opacity="0.3"/>
<path d="M83.5 115.5H65.5" stroke="#212529" stroke-opacity="0.3"/>
<circle cx="115.5" cy="115.5" r="115" stroke="#212529" stroke-opacity="0.3" stroke-dasharray="1 3.5"/>
</svg>
