<svg width="232" height="232" viewBox="0 0 232 232" fill="none" xmlns="http://www.w3.org/2000/svg">
<circle cx="54.6" cy="65.6" r="11.5" stroke="#212529" stroke-opacity="0.7"/>
<circle cx="54.6" cy="115.6" r="11.5" stroke="#212529" stroke-opacity="0.7"/>
<circle cx="176.6" cy="115.6" r="11.5" stroke="#212529" stroke-opacity="0.7"/>
<circle cx="176.6" cy="165.6" r="11.5" stroke="#212529" stroke-opacity="0.7"/>
<path d="M143.6 100.6C143.6 106.123 131.064 110.6 115.6 110.6C100.136 110.6 87.6 106.123 87.6 100.6V115.6C87.6 121.123 100.136 125.6 115.6 125.6C131.064 125.6 143.6 121.123 143.6 115.6V100.6Z" fill="#212529" fill-opacity="0.05"/>
<path d="M115.6 140.6C131.064 140.6 143.6 136.123 143.6 130.6V115.6C143.6 121.123 131.064 125.6 115.6 125.6C100.136 125.6 87.6 121.123 87.6 115.6V130.6C87.6 136.123 100.136 140.6 115.6 140.6Z" fill="#212529" fill-opacity="0.05"/>
<path d="M115.6 110.6C131.064 110.6 143.6 106.123 143.6 100.6C143.6 95.0771 131.064 90.6 115.6 90.6C100.136 90.6 87.6 95.0771 87.6 100.6C87.6 106.123 100.136 110.6 115.6 110.6Z" fill="#212529" fill-opacity="0.05"/>
<path d="M143.6 100.6C143.6 106.123 131.064 110.6 115.6 110.6C100.136 110.6 87.6 106.123 87.6 100.6M143.6 100.6C143.6 95.0771 131.064 90.6 115.6 90.6C100.136 90.6 87.6 95.0771 87.6 100.6M143.6 100.6V130.6M143.6 100.6V115.6M87.6 100.6V130.6M87.6 100.6V115.6M143.6 130.6C143.6 136.123 131.064 140.6 115.6 140.6C100.136 140.6 87.6 136.123 87.6 130.6M143.6 130.6V115.6M87.6 130.6V115.6M143.6 115.6C143.6 121.123 131.064 125.6 115.6 125.6C100.136 125.6 87.6 121.123 87.6 115.6" stroke="#212529" stroke-opacity="0.7"/>
<path d="M66.1 65.5999L108.765 65.2181C112.655 65.1832 115.828 68.3273 115.828 72.2178L115.828 87.5999" stroke="#212529" stroke-opacity="0.7"/>
<path d="M165.328 165.6L122.663 165.982C118.772 166.017 115.6 162.873 115.6 158.982L115.6 143.6" stroke="#212529" stroke-opacity="0.7"/>
<path d="M164.6 115.6H146.6" stroke="#212529" stroke-opacity="0.7"/>
<path d="M83.6 115.6H65.6" stroke="#212529" stroke-opacity="0.7"/>
<circle cx="115.6" cy="115.6" r="115" stroke="#212529" stroke-opacity="0.3" stroke-width="1.2"/>
</svg>
