<svg width="512" height="512" viewBox="0 0 512 512" fill="none" xmlns="http://www.w3.org/2000/svg">
<path d="M255.997 34L141.955 231.516C185.227 218.176 231.779 216.198 276.903 226.842L315.445 235.939L279.184 389.697L240.587 380.6C210.938 373.605 180.032 380.536 156.129 399.431C144.173 408.888 134.753 420.761 128.297 434.08L92.6215 416.821C101.647 398.18 114.843 381.552 131.51 368.357C164.851 341.967 208.322 332.275 249.709 342.04L267.784 265.408C203.035 250.143 134.793 265.344 82.6305 306.632C30.4677 347.916 0 410.853 0 477.373L512 477.387L255.997 34Z" fill="#60A5FA"/>
</svg>
