<svg width="200" height="200" viewBox="0 0 200 200" fill="none" xmlns="http://www.w3.org/2000/svg">
<circle cx="100" cy="100" r="100" fill="#F5F6F7"/>
<path d="M95.0355 143H62.777V55.7273H94.9929C103.885 55.7273 111.541 57.4744 117.962 60.9688C124.411 64.4347 129.382 69.4347 132.876 75.9688C136.371 82.4744 138.118 90.2585 138.118 99.321C138.118 108.412 136.371 116.224 132.876 122.759C129.411 129.293 124.453 134.307 118.004 137.801C111.555 141.267 103.899 143 95.0355 143ZM83.8707 125.017H94.2259C99.1122 125.017 103.246 124.193 106.626 122.545C110.036 120.869 112.607 118.156 114.339 114.406C116.101 110.628 116.982 105.599 116.982 99.321C116.982 93.0426 116.101 88.0426 114.339 84.321C112.578 80.571 109.979 77.8722 106.541 76.2244C103.132 74.5483 98.9276 73.7102 93.9276 73.7102H83.8707V125.017Z" fill="#212529"/>
</svg>
